<?xml version="1.0" encoding="UTF-8" standalone="no"?>
<!-- Created with Inkscape (http://www.inkscape.org/) -->
<svg
   xmlns:dc="http://purl.org/dc/elements/1.1/"
   xmlns:cc="http://creativecommons.org/ns#"
   xmlns:rdf="http://www.w3.org/1999/02/22-rdf-syntax-ns#"
   xmlns:svg="http://www.w3.org/2000/svg"
   xmlns="http://www.w3.org/2000/svg"
   xmlns:sodipodi="http://sodipodi.sourceforge.net/DTD/sodipodi-0.dtd"
   xmlns:inkscape="http://www.inkscape.org/namespaces/inkscape"
   width="744.09448819"
   height="1052.3622047"
   id="svg2"
   sodipodi:version="0.32"
   inkscape:version="0.46"
   inkscape:export-filename="/home/francesco/Lavoro/fgfs/airportPainter/airportPainter/imgs/als.png"
   inkscape:export-xdpi="7.9578948"
   inkscape:export-ydpi="7.9578948"
   sodipodi:docname="als.svg"
   inkscape:output_extension="org.inkscape.output.svg.inkscape">
  <defs
     id="defs4">
    <inkscape:perspective
       sodipodi:type="inkscape:persp3d"
       inkscape:vp_x="0 : 526.18109 : 1"
       inkscape:vp_y="0 : 1000 : 0"
       inkscape:vp_z="744.09448 : 526.18109 : 1"
       inkscape:persp3d-origin="372.04724 : 350.78739 : 1"
       id="perspective10" />
  </defs>
  <sodipodi:namedview
     id="base"
     pagecolor="#ffffff"
     bordercolor="#666666"
     borderopacity="1.0"
     inkscape:pageopacity="0.0"
     inkscape:pageshadow="2"
     inkscape:zoom="0.49497475"
     inkscape:cx="-38.762899"
     inkscape:cy="669.68142"
     inkscape:document-units="px"
     inkscape:current-layer="layer1"
     showgrid="false"
     inkscape:window-width="1270"
     inkscape:window-height="949"
     inkscape:window-x="1280"
     inkscape:window-y="0" />
  <metadata
     id="metadata7">
    <rdf:RDF>
      <cc:Work
         rdf:about="">
        <dc:format>image/svg+xml</dc:format>
        <dc:type
           rdf:resource="http://purl.org/dc/dcmitype/StillImage" />
      </cc:Work>
    </rdf:RDF>
  </metadata>
  <g
     inkscape:label="Livello 1"
     inkscape:groupmode="layer"
     id="layer1">
    <path
       sodipodi:type="arc"
       style="opacity:1;fill:#000000;fill-opacity:1;fill-rule:nonzero;stroke:#000000;stroke-width:8;stroke-miterlimit:4;stroke-dasharray:none;stroke-opacity:1"
       id="path2381"
       sodipodi:cx="642.85712"
       sodipodi:cy="626.64789"
       sodipodi:rx="322.85715"
       sodipodi:ry="322.85715"
       d="M 965.71426,626.64789 A 322.85715,322.85715 0 1 1 319.99997,626.64789 A 322.85715,322.85715 0 1 1 965.71426,626.64789 z"
       transform="matrix(2.3164349e-2,0,0,2.3164349e-2,-12.684807,-8.0022064)" />
    <path
       sodipodi:type="arc"
       style="opacity:1;fill:#000000;fill-opacity:1;fill-rule:nonzero;stroke:#000000;stroke-width:8;stroke-miterlimit:4;stroke-dasharray:none;stroke-opacity:1"
       id="path2385"
       sodipodi:cx="642.85712"
       sodipodi:cy="626.64789"
       sodipodi:rx="322.85715"
       sodipodi:ry="322.85715"
       d="M 965.71426,626.64789 A 322.85715,322.85715 0 1 1 319.99997,626.64789 A 322.85715,322.85715 0 1 1 965.71426,626.64789 z"
       transform="matrix(2.3164349e-2,0,0,2.3164349e-2,-12.684807,85.283524)" />
    <path
       sodipodi:type="arc"
       style="opacity:1;fill:#000000;fill-opacity:1;fill-rule:nonzero;stroke:#000000;stroke-width:8;stroke-miterlimit:4;stroke-dasharray:none;stroke-opacity:1"
       id="path2397"
       sodipodi:cx="642.85712"
       sodipodi:cy="626.64789"
       sodipodi:rx="322.85715"
       sodipodi:ry="322.85715"
       d="M 965.71426,626.64789 A 322.85715,322.85715 0 1 1 319.99997,626.64789 A 322.85715,322.85715 0 1 1 965.71426,626.64789 z"
       transform="matrix(2.3164349e-2,0,0,2.3164349e-2,-12.684807,223.56923)" />
    <path
       sodipodi:type="arc"
       style="opacity:1;fill:#000000;fill-opacity:1;fill-rule:nonzero;stroke:#000000;stroke-width:8;stroke-miterlimit:4;stroke-dasharray:none;stroke-opacity:1"
       id="path2399"
       sodipodi:cx="642.85712"
       sodipodi:cy="626.64789"
       sodipodi:rx="322.85715"
       sodipodi:ry="322.85715"
       d="M 965.71426,626.64789 A 322.85715,322.85715 0 1 1 319.99997,626.64789 A 322.85715,322.85715 0 1 1 965.71426,626.64789 z"
       transform="matrix(2.3164349e-2,0,0,2.3164349e-2,-12.684807,316.14066)" />
    <path
       sodipodi:type="arc"
       style="opacity:1;fill:#000000;fill-opacity:1;fill-rule:nonzero;stroke:#000000;stroke-width:8;stroke-miterlimit:4;stroke-dasharray:none;stroke-opacity:1"
       id="path2401"
       sodipodi:cx="642.85712"
       sodipodi:cy="626.64789"
       sodipodi:rx="322.85715"
       sodipodi:ry="322.85715"
       d="M 965.71426,626.64789 A 322.85715,322.85715 0 1 1 319.99997,626.64789 A 322.85715,322.85715 0 1 1 965.71426,626.64789 z"
       transform="matrix(2.3164349e-2,0,0,2.3164349e-2,-12.684807,38.140664)" />
    <path
       sodipodi:type="arc"
       style="opacity:1;fill:#000000;fill-opacity:1;fill-rule:nonzero;stroke:#000000;stroke-width:8;stroke-miterlimit:4;stroke-dasharray:none;stroke-opacity:1"
       id="path2403"
       sodipodi:cx="642.85712"
       sodipodi:cy="626.64789"
       sodipodi:rx="322.85715"
       sodipodi:ry="322.85715"
       d="M 965.71426,626.64789 A 322.85715,322.85715 0 1 1 319.99997,626.64789 A 322.85715,322.85715 0 1 1 965.71426,626.64789 z"
       transform="matrix(2.3164349e-2,0,0,2.3164349e-2,-12.684807,131.56923)" />
    <path
       sodipodi:type="arc"
       style="opacity:1;fill:#000000;fill-opacity:1;fill-rule:nonzero;stroke:#000000;stroke-width:8;stroke-miterlimit:4;stroke-dasharray:none;stroke-opacity:1"
       id="path2405"
       sodipodi:cx="642.85712"
       sodipodi:cy="626.64789"
       sodipodi:rx="322.85715"
       sodipodi:ry="322.85715"
       d="M 965.71426,626.64789 A 322.85715,322.85715 0 1 1 319.99997,626.64789 A 322.85715,322.85715 0 1 1 965.71426,626.64789 z"
       transform="matrix(2.3164349e-2,0,0,2.3164349e-2,-12.684807,179.28352)" />
    <path
       sodipodi:type="arc"
       style="opacity:1;fill:#000000;fill-opacity:1;fill-rule:nonzero;stroke:#000000;stroke-width:8;stroke-miterlimit:4;stroke-dasharray:none;stroke-opacity:1"
       id="path2407"
       sodipodi:cx="642.85712"
       sodipodi:cy="626.64789"
       sodipodi:rx="322.85715"
       sodipodi:ry="322.85715"
       d="M 965.71426,626.64789 A 322.85715,322.85715 0 1 1 319.99997,626.64789 A 322.85715,322.85715 0 1 1 965.71426,626.64789 z"
       transform="matrix(2.3164349e-2,0,0,2.3164349e-2,-12.684807,272.14066)" />
    <path
       sodipodi:type="arc"
       style="opacity:1;fill:#000000;fill-opacity:1;fill-rule:nonzero;stroke:#000000;stroke-width:8;stroke-miterlimit:4;stroke-dasharray:none;stroke-opacity:1"
       id="path2409"
       sodipodi:cx="642.85712"
       sodipodi:cy="626.64789"
       sodipodi:rx="322.85715"
       sodipodi:ry="322.85715"
       d="M 965.71426,626.64789 A 322.85715,322.85715 0 1 1 319.99997,626.64789 A 322.85715,322.85715 0 1 1 965.71426,626.64789 z"
       transform="matrix(0.1111447,0,0,2.2608124e-2,-117.98506,85.337434)" />
    <path
       sodipodi:type="arc"
       style="opacity:1;fill:#000000;fill-opacity:1;fill-rule:nonzero;stroke:#000000;stroke-width:8;stroke-miterlimit:4;stroke-dasharray:none;stroke-opacity:1"
       id="path2411"
       sodipodi:cx="642.85712"
       sodipodi:cy="626.64789"
       sodipodi:rx="322.85715"
       sodipodi:ry="322.85715"
       d="M 965.71426,626.64789 A 322.85715,322.85715 0 1 1 319.99997,626.64789 A 322.85715,322.85715 0 1 1 965.71426,626.64789 z"
       transform="matrix(0.1111447,0,0,2.2608124e-2,-22.575677,84.846064)" />
    <path
       sodipodi:type="arc"
       style="opacity:1;fill:#000000;fill-opacity:1;fill-rule:nonzero;stroke:#000000;stroke-width:8;stroke-miterlimit:4;stroke-dasharray:none;stroke-opacity:1"
       id="path2413"
       sodipodi:cx="642.85712"
       sodipodi:cy="626.64789"
       sodipodi:rx="322.85715"
       sodipodi:ry="322.85715"
       d="M 965.71426,626.64789 A 322.85715,322.85715 0 1 1 319.99997,626.64789 A 322.85715,322.85715 0 1 1 965.71426,626.64789 z"
       transform="matrix(0.1111447,0,0,2.2608124e-2,-116.79185,223.52069)" />
    <path
       sodipodi:type="arc"
       style="opacity:1;fill:#000000;fill-opacity:1;fill-rule:nonzero;stroke:#000000;stroke-width:8;stroke-miterlimit:4;stroke-dasharray:none;stroke-opacity:1"
       id="path2415"
       sodipodi:cx="642.85712"
       sodipodi:cy="626.64789"
       sodipodi:rx="322.85715"
       sodipodi:ry="322.85715"
       d="M 965.71426,626.64789 A 322.85715,322.85715 0 1 1 319.99997,626.64789 A 322.85715,322.85715 0 1 1 965.71426,626.64789 z"
       transform="matrix(0.1111447,0,0,2.2608124e-2,-21.382467,223.02932)" />
  </g>
</svg>
